<?xml version="1.0" standalone="no"?>
<!DOCTYPE svg PUBLIC "-//W3C//DTD SVG 20010904//EN"
 "http://www.w3.org/TR/2001/REC-SVG-20010904/DTD/svg10.dtd">
<svg version="1.0" xmlns="http://www.w3.org/2000/svg"
 width="1280.000000pt" height="674.000000pt" viewBox="0 0 1280.000000 674.000000"
 preserveAspectRatio="xMidYMid meet">
<metadata>
Created by potrace 1.15, written by Peter Selinger 2001-2017
</metadata>
<g transform="translate(0.000000,674.000000) scale(0.100000,-0.100000)"
fill="#000000" stroke="none">
<path d="M0 4925 l0 -1815 6400 0 6400 0 0 260 0 260 -3840 0 -3840 0 0 265 0
265 3840 0 3840 0 0 245 0 245 -3840 0 -3840 0 0 265 0 265 3840 0 3840 0 0
255 0 255 -3840 0 -3840 0 0 270 0 270 3840 0 3840 0 0 255 0 255 -6400 0
-6400 0 0 -1815z m459 1580 c14 -54 32 -65 107 -65 l57 0 -47 -36 c-25 -21
-49 -48 -52 -61 -6 -22 1 -78 13 -109 4 -10 -12 -4 -44 15 -61 38 -78 38 -125
6 -20 -14 -39 -25 -42 -25 -3 0 -3 28 1 63 l6 63 -49 42 -49 42 55 0 c58 0
100 19 100 46 0 8 7 31 15 51 12 28 18 33 29 24 8 -6 19 -32 25 -56z m1707 -2
c9 -46 37 -63 104 -63 l55 0 -49 -42 -49 -42 6 -63 c4 -35 4 -63 1 -63 -3 0
-22 11 -42 25 -47 32 -64 32 -125 -6 -32 -19 -48 -25 -44 -15 12 31 19 87 13
109 -3 13 -27 40 -52 61 l-47 36 57 0 c74 0 93 11 107 63 15 59 29 74 46 51 7
-10 16 -33 19 -51z m853 2 c14 -54 32 -65 107 -65 l57 0 -47 -36 c-25 -21 -49
-48 -52 -61 -6 -22 1 -78 13 -109 4 -10 -12 -4 -44 15 -61 38 -78 38 -125 6
-20 -14 -39 -25 -42 -25 -3 0 -3 28 1 63 l6 63 -49 42 -49 42 55 0 c58 0 100
19 100 46 0 8 7 31 15 51 12 28 18 33 29 24 8 -6 19 -32 25 -56z m1707 -2 c9
-46 37 -63 104 -63 l55 0 -49 -42 -49 -42 6 -63 c4 -35 4 -63 1 -63 -3 0 -22
11 -42 25 -47 32 -64 32 -125 -6 -32 -19 -48 -25 -44 -15 12 31 19 87 13 109
-3 13 -27 40 -52 61 l-47 36 57 0 c74 0 93 11 107 63 15 59 29 74 46 51 7 -10
16 -33 19 -51z m-3414 3 c9 -27 19 -51 23 -54 3 -3 34 -8 69 -10 l64 -4 -50
-48 c-54 -52 -54 -53 -31 -148 5 -23 4 -22 -43 7 -26 17 -55 31 -64 31 -9 0
-38 -14 -64 -31 -47 -29 -48 -30 -43 -7 23 96 23 96 -32 149 l-51 49 48 0 c70
0 89 8 102 43 26 70 31 78 42 75 7 -3 20 -26 30 -52z m2560 0 c9 -27 19 -51
23 -54 3 -3 34 -8 69 -10 l64 -4 -50 -48 c-54 -52 -54 -53 -31 -148 5 -23 4
-22 -43 7 -26 17 -55 31 -64 31 -9 0 -38 -14 -64 -31 -47 -29 -48 -30 -43 -7
23 96 23 96 -32 149 l-51 49 48 0 c70 0 89 8 102 43 26 70 31 78 42 75 7 -3
20 -26 30 -52z m-2991 -361 c14 -54 32 -65 107 -65 l65 0 -39 -31 c-57 -44
-64 -57 -64 -121 0 -32 -4 -58 -9 -58 -5 0 -23 11 -39 25 -17 14 -37 25 -47
25 -9 0 -31 -11 -49 -25 -50 -38 -57 -34 -50 33 l6 58 -52 47 -52 47 65 0 c74
0 91 11 102 62 4 18 12 41 17 52 13 23 23 10 39 -49z m853 1 c9 -30 23 -57 32
-60 9 -3 43 -6 76 -6 l60 0 -52 -47 -52 -47 6 -58 c7 -67 0 -71 -50 -33 -18
14 -40 25 -49 25 -10 0 -30 -11 -47 -25 -16 -14 -34 -25 -39 -25 -5 0 -9 26
-9 58 0 64 -7 77 -64 121 l-39 31 62 0 c74 0 96 10 105 47 11 47 28 83 37 78
4 -3 15 -30 23 -59z m1707 -1 c14 -54 32 -65 107 -65 l65 0 -39 -31 c-57 -44
-64 -57 -64 -121 0 -32 -4 -58 -9 -58 -5 0 -23 11 -39 25 -17 14 -37 25 -47
25 -9 0 -31 -11 -49 -25 -50 -38 -57 -34 -50 33 l6 58 -52 47 -52 47 65 0 c74
0 91 11 102 62 4 18 12 41 17 52 13 23 23 10 39 -49z m853 1 c9 -30 23 -57 32
-60 9 -3 43 -6 76 -6 l60 0 -52 -47 -52 -47 6 -58 c7 -67 0 -71 -50 -33 -18
14 -40 25 -49 25 -10 0 -30 -11 -47 -25 -16 -14 -34 -25 -39 -25 -5 0 -9 26
-9 58 0 64 -7 77 -64 121 l-39 31 62 0 c74 0 96 10 105 47 11 47 28 83 37 78
4 -3 15 -30 23 -59z m-1707 3 c17 -57 35 -69 106 -69 l59 0 -51 -48 -52 -49 7
-56 c8 -66 0 -70 -50 -32 -18 14 -39 25 -46 25 -7 0 -28 -11 -46 -25 -50 -38
-58 -34 -50 32 l7 56 -52 49 -51 48 61 0 c63 0 101 20 101 54 0 28 20 68 32
64 7 -3 18 -24 25 -49z m-2137 -346 c24 -75 34 -83 100 -83 33 0 60 -3 60 -6
0 -4 -20 -24 -45 -46 -50 -44 -55 -67 -30 -137 8 -22 12 -41 9 -41 -3 0 -31
18 -61 40 l-56 40 -65 -47 c-46 -32 -63 -41 -58 -27 25 59 35 107 26 123 -5
10 -27 34 -49 54 -23 20 -41 39 -41 42 0 3 27 5 59 5 57 0 91 15 91 41 0 19
29 79 39 79 5 0 15 -17 21 -37z m859 -14 c24 -68 26 -69 99 -69 l67 0 -52 -49
c-57 -53 -61 -66 -38 -131 8 -24 13 -45 11 -47 -2 -3 -30 14 -60 36 l-56 42
-56 -42 c-30 -22 -58 -39 -60 -36 -2 2 3 23 11 47 23 65 19 78 -37 131 l-53
49 66 0 c73 0 80 4 99 65 7 22 15 44 17 48 10 17 27 -1 42 -44z m854 -5 c10
-27 24 -52 30 -56 7 -4 38 -8 70 -8 31 0 57 -2 57 -5 0 -3 -18 -22 -41 -42
-22 -20 -44 -44 -49 -54 -9 -16 1 -64 26 -123 5 -14 -12 -5 -58 27 l-65 47
-56 -40 c-30 -22 -58 -40 -61 -40 -3 0 1 19 9 41 25 70 20 93 -30 137 -25 22
-45 42 -45 46 0 3 27 6 60 6 66 0 76 8 100 83 6 21 17 36 23 34 7 -2 20 -26
30 -53z m847 19 c24 -75 34 -83 100 -83 33 0 60 -3 60 -6 0 -4 -20 -24 -45
-46 -50 -44 -55 -67 -30 -137 8 -22 12 -41 9 -41 -3 0 -31 18 -61 40 l-56 40
-65 -47 c-46 -32 -63 -41 -58 -27 25 59 35 107 26 123 -5 10 -27 34 -49 54
-23 20 -41 39 -41 42 0 3 27 5 59 5 57 0 91 15 91 41 0 19 29 79 39 79 5 0 15
-17 21 -37z m859 -14 c24 -68 26 -69 99 -69 l67 0 -52 -49 c-57 -53 -61 -66
-38 -131 8 -24 13 -45 11 -47 -2 -3 -30 14 -60 36 l-56 42 -56 -42 c-30 -22
-58 -39 -60 -36 -2 2 3 23 11 47 23 65 19 78 -37 131 l-53 49 66 0 c73 0 80 4
99 65 7 22 15 44 17 48 10 17 27 -1 42 -44z m854 -5 c10 -27 24 -52 30 -56 7
-4 38 -8 70 -8 31 0 57 -2 57 -5 0 -3 -18 -22 -41 -42 -22 -20 -44 -44 -49
-54 -9 -16 1 -64 26 -123 5 -14 -12 -5 -58 27 l-65 47 -56 -40 c-30 -22 -58
-40 -61 -40 -3 0 1 19 9 41 25 70 20 93 -30 137 -25 22 -45 42 -45 46 0 3 27
6 60 6 66 0 76 8 100 83 6 21 17 36 23 34 7 -2 20 -26 30 -53z m-3840 -362
c16 -56 41 -72 111 -72 l50 0 -42 -36 c-59 -50 -63 -62 -47 -125 8 -30 15 -55
15 -56 0 -11 -24 2 -61 32 -24 19 -49 35 -55 35 -6 0 -32 -16 -58 -36 -25 -21
-49 -34 -52 -31 -3 3 -1 22 5 44 19 67 14 83 -36 130 l-48 43 47 0 c72 0 92
12 107 62 24 81 43 84 64 10z m857 -8 c15 -52 35 -64 108 -64 l47 0 -48 -43
c-50 -47 -55 -63 -36 -130 6 -22 8 -41 5 -44 -3 -3 -27 10 -52 31 -26 20 -52
36 -58 36 -6 0 -31 -16 -55 -35 -37 -30 -61 -43 -61 -32 0 1 7 26 15 56 16 63
12 75 -47 125 l-42 36 50 0 c68 0 95 17 109 66 7 23 15 46 19 53 12 19 32 -4
46 -55z m850 10 c19 -57 44 -74 112 -74 l47 0 -52 -49 -51 -49 14 -56 c7 -31
10 -59 7 -62 -4 -4 -26 10 -51 30 -24 20 -50 36 -56 36 -6 0 -32 -16 -56 -36
-25 -20 -47 -34 -51 -30 -3 3 0 31 7 62 l14 56 -51 49 -52 49 47 0 c64 0 93
17 109 65 7 22 15 46 18 53 9 25 29 6 45 -44z m853 -2 c16 -56 41 -72 111 -72
l50 0 -42 -36 c-59 -50 -63 -62 -47 -125 8 -30 15 -55 15 -56 0 -11 -24 2 -61
32 -24 19 -49 35 -55 35 -6 0 -32 -16 -58 -36 -25 -21 -49 -34 -52 -31 -3 3
-1 22 5 44 19 67 14 83 -36 130 l-48 43 47 0 c72 0 92 12 107 62 24 81 43 84
64 10z m857 -8 c15 -52 35 -64 108 -64 l47 0 -48 -43 c-50 -47 -55 -63 -36
-130 6 -22 8 -41 5 -44 -3 -3 -27 10 -52 31 -26 20 -52 36 -58 36 -6 0 -31
-16 -55 -35 -37 -30 -61 -43 -61 -32 0 1 7 26 15 56 16 63 12 75 -47 125 l-42
36 50 0 c68 0 95 17 109 66 7 23 15 46 19 53 12 19 32 -4 46 -55z m-3841 -359
c14 -54 32 -65 107 -65 l57 0 -46 -36 c-54 -42 -61 -58 -52 -125 8 -58 1 -61
-56 -19 -43 31 -45 31 -95 -7 -17 -13 -34 -23 -37 -23 -4 0 -7 29 -7 64 0 64
0 64 -47 105 l-48 40 55 1 c58 0 100 19 100 46 0 8 7 31 15 51 12 28 18 33 29
24 8 -6 19 -32 25 -56z m840 35 c6 -16 16 -43 22 -59 12 -33 32 -41 101 -41
l48 0 -50 -48 -51 -49 7 -56 c4 -34 3 -57 -3 -57 -5 0 -28 14 -51 31 l-42 31
-42 -31 c-23 -17 -46 -31 -51 -31 -6 0 -7 23 -3 57 l7 56 -51 49 -50 48 48 0
c69 0 89 8 101 41 6 16 16 43 22 59 6 17 15 30 19 30 4 0 13 -13 19 -30z m867
-37 c9 -45 37 -63 104 -63 l55 -1 -47 -40 c-48 -41 -48 -41 -48 -105 0 -35 -3
-64 -7 -64 -3 0 -20 10 -37 23 -50 38 -52 38 -95 7 -57 -42 -64 -39 -56 19 9
67 2 83 -52 125 l-46 36 57 0 c74 0 93 11 107 63 15 59 29 74 46 51 7 -10 16
-33 19 -51z m853 2 c14 -54 32 -65 107 -65 l57 0 -46 -36 c-54 -42 -61 -58
-52 -125 8 -58 1 -61 -56 -19 -43 31 -45 31 -95 -7 -17 -13 -34 -23 -37 -23
-4 0 -7 29 -7 64 0 64 0 64 -47 105 l-48 40 55 1 c58 0 100 19 100 46 0 8 7
31 15 51 12 28 18 33 29 24 8 -6 19 -32 25 -56z m840 35 c6 -16 16 -43 22 -59
12 -33 32 -41 101 -41 l48 0 -50 -48 -51 -49 7 -56 c4 -34 3 -57 -3 -57 -5 0
-28 14 -51 31 l-42 31 -42 -31 c-23 -17 -46 -31 -51 -31 -6 0 -7 23 -3 57 l7
56 -51 49 -50 48 48 0 c69 0 89 8 101 41 6 16 16 43 22 59 6 17 15 30 19 30 4
0 13 -13 19 -30z m867 -37 c9 -45 37 -63 104 -63 l55 -1 -47 -40 c-48 -41 -48
-41 -48 -105 0 -35 -3 -64 -7 -64 -3 0 -20 10 -37 23 -50 38 -52 38 -95 7 -57
-42 -64 -39 -56 19 9 67 2 83 -52 125 l-46 36 57 0 c74 0 93 11 107 63 15 59
29 74 46 51 7 -10 16 -33 19 -51z m-3846 -349 c19 -66 31 -74 108 -74 l67 0
-48 -41 c-65 -56 -70 -67 -52 -126 18 -58 18 -53 2 -53 -7 0 -28 13 -47 30
-44 37 -63 37 -110 0 -46 -36 -65 -39 -56 -7 3 12 9 40 13 61 6 38 4 41 -48
87 l-54 48 67 1 c75 0 84 7 108 83 16 50 35 47 50 -9z m850 9 c24 -76 33 -83
108 -83 l67 0 -54 -48 -54 -48 6 -57 c8 -66 1 -70 -49 -32 -18 14 -39 25 -46
25 -8 0 -29 -11 -48 -25 -19 -14 -38 -25 -42 -25 -4 0 -8 27 -8 60 0 64 1 63
-80 129 l-25 20 67 1 c77 0 89 8 108 74 15 56 34 59 50 9z m859 -15 c9 -26 20
-50 24 -55 5 -4 40 -10 78 -13 l70 -5 -51 -40 c-27 -22 -53 -47 -55 -56 -3
-10 -1 -38 6 -63 14 -57 7 -66 -29 -38 -48 39 -69 47 -94 34 -13 -7 -35 -22
-50 -34 -36 -28 -43 -19 -29 38 7 25 9 53 6 63 -2 9 -28 34 -55 56 l-51 40 68
5 c78 6 88 11 97 44 22 89 41 95 65 24z m851 6 c19 -66 31 -74 108 -74 l67 -1
-25 -20 c-81 -66 -80 -65 -80 -129 0 -33 -4 -60 -8 -60 -4 0 -23 11 -42 25
-19 14 -40 25 -48 25 -7 0 -28 -11 -46 -25 -50 -38 -57 -34 -49 32 l6 57 -54
48 -54 48 67 0 c75 0 84 7 108 83 16 50 35 47 50 -9z m850 9 c24 -76 33 -83
108 -83 l67 -1 -54 -48 c-52 -46 -54 -49 -48 -87 4 -21 10 -49 13 -61 9 -32
-10 -29 -56 7 -47 37 -66 37 -110 0 -19 -17 -40 -30 -47 -30 -16 0 -16 -5 2
53 18 59 13 70 -52 126 l-48 41 67 0 c77 0 89 8 108 74 15 56 34 59 50 9z
m-3840 -360 c24 -76 33 -83 105 -83 36 0 65 -3 65 -7 -1 -5 -23 -25 -50 -46
-54 -41 -61 -63 -39 -125 18 -52 6 -57 -44 -18 -26 20 -53 36 -61 36 -7 0 -33
-16 -57 -35 -46 -36 -66 -34 -51 6 28 75 27 78 -35 135 l-58 54 73 0 c80 0 71
-7 106 83 8 20 19 37 25 37 5 0 15 -17 21 -37z m859 -14 c24 -68 25 -69 104
-69 l72 0 -54 -47 -53 -47 7 -69 c7 -76 9 -76 -56 -25 -20 15 -42 28 -49 28
-6 0 -32 -16 -57 -35 -25 -19 -48 -33 -51 -30 -3 3 1 30 8 62 l14 56 -59 54
-58 53 70 0 c78 0 84 4 103 65 7 22 15 44 17 48 10 17 27 -1 42 -44z m856 -10
l21 -54 74 -5 75 -5 -48 -39 c-65 -53 -70 -64 -52 -122 8 -27 11 -52 7 -56 -4
-4 -27 8 -51 27 -24 19 -50 35 -57 35 -8 0 -35 -16 -60 -35 -26 -20 -49 -34
-51 -31 -3 2 0 29 7 59 13 64 8 76 -51 122 -21 17 -38 33 -39 38 0 4 29 7 65
7 72 0 81 7 105 83 6 21 17 36 23 34 6 -2 21 -28 32 -58z m845 24 c24 -76 33
-83 105 -83 36 0 65 -3 65 -7 -1 -5 -18 -21 -39 -38 -59 -46 -64 -58 -51 -122
7 -30 10 -57 7 -59 -2 -3 -25 11 -51 31 -25 19 -52 35 -60 35 -7 0 -33 -16
-57 -35 -46 -36 -66 -34 -51 6 28 75 27 78 -35 135 l-58 54 73 0 c80 0 71 -7
106 83 8 20 19 37 25 37 5 0 15 -17 21 -37z m859 -14 c24 -68 25 -69 103 -69
l71 0 -58 -53 -59 -54 14 -56 c7 -32 11 -59 8 -62 -3 -3 -26 11 -51 30 -25 19
-51 35 -57 35 -7 0 -29 -13 -49 -28 -65 -51 -63 -51 -56 25 l7 69 -53 47 -54
47 71 0 c79 0 85 4 104 65 7 22 15 44 17 48 10 17 27 -1 42 -44z m856 -10 l21
-54 74 -5 75 -5 -48 -39 c-65 -53 -70 -64 -52 -122 8 -27 11 -52 7 -56 -4 -4
-27 8 -51 27 -24 19 -50 35 -57 35 -8 0 -35 -16 -61 -36 -50 -39 -62 -34 -44
18 22 62 15 84 -39 125 -27 21 -49 41 -50 46 0 4 29 7 65 7 72 0 81 7 105 83
6 21 17 36 23 34 6 -2 21 -28 32 -58z m-3844 -355 c20 -59 44 -74 118 -74 l54
0 -51 -40 c-56 -45 -67 -65 -54 -101 17 -44 22 -79 14 -79 -5 0 -30 16 -55 35
-25 19 -50 35 -55 35 -5 0 -30 -16 -56 -36 -25 -21 -49 -35 -52 -32 -3 3 0 26
7 52 15 62 7 85 -46 126 l-45 35 66 7 c37 4 70 10 74 15 4 4 15 32 25 61 9 30
22 51 28 49 7 -2 19 -26 28 -53z m854 4 c10 -29 21 -57 25 -61 4 -5 37 -11 74
-15 l66 -7 -45 -35 c-53 -41 -61 -64 -46 -126 7 -26 10 -49 7 -52 -3 -3 -27
11 -52 32 -26 20 -51 36 -56 36 -5 0 -30 -16 -55 -35 -25 -19 -50 -35 -55 -35
-8 0 -3 35 14 79 13 36 2 56 -54 101 l-51 40 54 0 c73 0 99 16 114 66 24 81
37 84 60 12z m855 -4 c20 -58 44 -74 115 -74 l50 0 -54 -48 -55 -49 14 -56 c7
-32 11 -60 7 -63 -3 -3 -27 10 -53 30 -26 20 -50 36 -54 36 -4 0 -28 -16 -54
-36 -26 -20 -50 -33 -53 -30 -4 3 0 31 7 63 l14 56 -55 49 -54 48 50 0 c67 0
95 17 112 65 7 22 15 46 18 53 9 25 29 6 45 -44z m851 0 c20 -59 44 -74 118
-74 l54 0 -51 -40 c-56 -45 -67 -65 -54 -101 17 -44 22 -79 14 -79 -5 0 -30
16 -55 35 -25 19 -50 35 -55 35 -5 0 -30 -16 -56 -36 -25 -21 -49 -35 -52 -32
-3 3 0 26 7 52 15 62 7 85 -46 126 l-45 35 66 7 c37 4 70 10 74 15 4 4 15 32
25 61 9 30 22 51 28 49 7 -2 19 -26 28 -53z m854 4 c10 -29 21 -57 25 -61 4
-5 37 -11 74 -15 l66 -7 -45 -35 c-53 -41 -61 -64 -46 -126 7 -26 10 -49 7
-52 -3 -3 -27 11 -52 32 -26 20 -51 36 -56 36 -5 0 -30 -16 -55 -35 -25 -19
-50 -35 -55 -35 -8 0 -3 35 14 79 13 36 2 56 -54 101 l-51 40 54 0 c73 0 99
16 114 66 24 81 37 84 60 12z m-3839 -375 c9 -47 37 -63 109 -63 l60 0 -55
-49 -55 -48 13 -58 c6 -32 10 -61 7 -63 -3 -3 -24 8 -48 25 -23 16 -47 33 -53
36 -6 4 -32 -9 -57 -28 -48 -37 -73 -45 -64 -21 3 8 11 33 17 55 13 48 6 62
-56 111 l-44 35 67 5 c80 6 89 10 96 47 3 16 11 42 17 58 11 29 12 29 26 11 7
-11 17 -35 20 -53z m849 12 c9 -31 25 -59 35 -65 10 -6 46 -10 80 -10 l62 0
-56 -46 c-60 -49 -62 -52 -45 -120 6 -25 9 -48 5 -51 -3 -3 -27 10 -52 31 -26
20 -50 36 -54 36 -4 0 -28 -16 -54 -36 -25 -21 -49 -34 -52 -31 -4 3 -1 26 5
51 17 68 15 71 -45 120 l-56 46 62 0 c34 0 70 4 80 10 10 6 26 34 35 65 8 30
20 55 25 55 5 0 17 -25 25 -55z m855 -2 c7 -27 17 -52 22 -58 5 -5 40 -12 79
-15 l69 -5 -44 -35 c-62 -49 -69 -63 -56 -111 6 -22 14 -47 17 -55 9 -24 -16
-16 -64 21 -25 19 -51 32 -57 28 -6 -3 -30 -20 -53 -36 -24 -17 -45 -28 -48
-25 -3 2 1 31 7 63 l13 58 -55 48 -55 49 60 0 c63 0 105 18 105 46 0 25 29 86
38 80 5 -3 15 -27 22 -53z m856 -10 c9 -47 37 -63 109 -63 l60 0 -55 -49 -55
-48 13 -58 c6 -32 10 -61 7 -63 -3 -3 -24 8 -48 25 -23 16 -47 33 -53 36 -6 4
-32 -9 -57 -28 -48 -37 -73 -45 -64 -21 3 8 11 33 17 55 13 48 6 62 -56 111
l-44 35 67 5 c80 6 89 10 96 47 3 16 11 42 17 58 11 29 12 29 26 11 7 -11 17
-35 20 -53z m849 12 c9 -31 25 -59 35 -65 10 -6 46 -10 80 -10 l62 0 -56 -46
c-60 -49 -62 -52 -45 -120 6 -25 9 -48 5 -51 -3 -3 -27 10 -52 31 -26 20 -50
36 -54 36 -4 0 -28 -16 -54 -36 -25 -21 -49 -34 -52 -31 -4 3 -1 26 5 51 17
68 15 71 -45 120 l-56 46 62 0 c34 0 70 4 80 10 10 6 26 34 35 65 8 30 20 55
25 55 5 0 17 -25 25 -55z m855 -2 c7 -27 17 -52 22 -58 5 -5 40 -12 79 -15
l69 -5 -44 -35 c-62 -49 -69 -63 -56 -111 6 -22 14 -47 17 -55 9 -24 -16 -16
-64 21 -25 19 -51 32 -57 28 -6 -3 -30 -20 -53 -36 -24 -17 -45 -28 -48 -25
-3 2 1 31 7 63 l13 58 -55 48 -55 49 60 0 c63 0 105 18 105 46 0 25 29 86 38
80 5 -3 15 -27 22 -53z"/>
<path d="M0 2335 l0 -245 6400 0 6400 0 0 245 0 245 -6400 0 -6400 0 0 -245z"/>
<path d="M0 1305 l0 -255 6400 0 6400 0 0 255 0 255 -6400 0 -6400 0 0 -255z"/>
<path d="M0 255 l0 -255 6400 0 6400 0 0 255 0 255 -6400 0 -6400 0 0 -255z"/>
</g>
</svg>
